<svg width="340" height="140" viewBox="0 0 340 140" fill="none" xmlns="http://www.w3.org/2000/svg">
<circle cx="245.19" cy="8.43628" r="7.50732" fill="#EAF7FF"/>
<circle cx="314.126" cy="114.492" r="7.50732" fill="#EAF7FF"/>
<circle cx="80.0469" cy="9.19385" r="7.50732" fill="#EAF7FF"/>
<circle cx="326.247" cy="72.7991" r="12.8384" fill="#EAF7FF"/>
<circle cx="18.478" cy="117.314" r="17.5635" fill="#EAF7FF"/>
<path d="M271.976 43.932C297.184 69.1391 311.396 103.285 311.528 138.92L41.4492 138.92C41.5809 103.285 55.7935 69.1391 81.0006 43.932C106.326 18.6071 140.674 4.37964 176.489 4.37964C212.303 4.37964 246.651 18.6071 271.976 43.932Z" fill="white" stroke="#C8DEEC"/>
<path d="M195.553 120.355C200.491 125.294 203.316 131.95 203.445 138.92H176.489H149.532C149.661 131.95 152.486 125.294 157.424 120.355C162.48 115.299 169.338 112.459 176.488 112.459C183.639 112.459 190.497 115.299 195.553 120.355ZM148.532 138.92L129.903 138.92C130.034 126.745 134.927 115.096 143.546 106.477C152.283 97.7399 164.133 92.8315 176.489 92.8315C188.845 92.8315 200.695 97.7399 209.432 106.477C218.051 115.096 222.944 126.745 223.074 138.92H204.445C204.316 131.685 201.386 124.774 196.26 119.648C191.016 114.405 183.904 111.459 176.488 111.459C169.073 111.459 161.961 114.405 156.717 119.648C151.591 124.774 148.661 131.685 148.532 138.92ZM142.839 105.77C134.032 114.576 129.034 126.479 128.903 138.92H110.275C110.406 121.539 117.367 104.898 129.667 92.5984C142.085 80.1806 158.927 73.2043 176.488 73.2043C194.05 73.2043 210.892 80.1806 223.31 92.5984C235.61 104.898 242.571 121.539 242.702 138.92H224.074C223.944 126.479 218.945 114.576 210.139 105.77C201.214 96.8453 189.11 91.8315 176.489 91.8315C163.867 91.8315 151.763 96.8453 142.839 105.77ZM128.96 91.8913C116.472 104.379 109.406 121.274 109.275 138.92L85.0395 138.92C85.1709 114.846 94.7909 91.787 111.823 74.7547C128.974 57.6044 152.234 47.9695 176.488 47.9695C200.743 47.9695 224.003 57.6044 241.154 74.7547C258.186 91.787 267.806 114.846 267.937 138.92H243.702C243.571 121.274 236.504 104.379 224.017 91.8913C211.412 79.286 194.315 72.2043 176.488 72.2043C158.662 72.2043 141.565 79.2859 128.96 91.8913ZM111.116 74.0475C93.8962 91.2675 84.1709 114.581 84.0394 138.92H62.0475C62.1791 108.748 74.2215 79.8411 95.5658 58.4969C117.028 37.0348 146.137 24.9775 176.489 24.9775C206.841 24.9775 235.949 37.0348 257.412 58.4969C278.756 79.8411 290.798 108.748 290.93 138.92H268.937C268.806 114.581 259.081 91.2675 241.861 74.0476C224.523 56.7098 201.008 46.9695 176.488 46.9695C151.969 46.9695 128.454 56.7098 111.116 74.0475Z" fill="white" stroke="#C8DEEC"/>
<rect x="30.8381" y="41.9064" width="55.0635" height="93.3682" rx="5.5" transform="rotate(-12.1358 30.8381 41.9064)" fill="#C9DCF8" stroke="#6CAAC8"/>
<circle cx="48.6673" cy="55.1463" r="6.79041" transform="rotate(-12.1358 48.6673 55.1463)" fill="white"/>
<circle cx="57.3789" cy="95.6587" r="6.79041" transform="rotate(-12.1358 57.3789 95.6587)" fill="white"/>
<circle cx="52.7669" cy="74.211" r="6.79041" transform="rotate(-12.1358 52.7669 74.211)" fill="white"/>
<circle cx="61.4785" cy="114.723" r="6.79041" transform="rotate(-12.1358 61.4785 114.723)" fill="white"/>
<circle cx="72.498" cy="50.0219" r="6.79041" transform="rotate(-12.1358 72.498 50.0219)" fill="white"/>
<circle cx="81.2096" cy="90.5343" r="6.79041" transform="rotate(-12.1358 81.2096 90.5343)" fill="white"/>
<circle cx="76.5976" cy="69.0866" r="6.79041" transform="rotate(-12.1358 76.5976 69.0866)" fill="white"/>
<circle cx="85.3092" cy="109.599" r="6.79041" transform="rotate(-12.1358 85.3092 109.599)" fill="white"/>
<rect x="51.891" y="45.0816" width="55.0635" height="93.3682" rx="5.5" transform="rotate(-0.327754 51.891 45.0816)" fill="#C9DCF8" stroke="#6CAAC8"/>
<circle cx="66.6336" cy="61.6898" r="6.79041" transform="rotate(-0.327754 66.6336 61.6898)" fill="white"/>
<circle cx="66.8707" cy="103.128" r="6.79041" transform="rotate(-0.327754 66.8707 103.128)" fill="white"/>
<circle cx="66.7452" cy="81.1899" r="6.79041" transform="rotate(-0.327754 66.7452 81.1899)" fill="white"/>
<circle cx="66.9822" cy="122.628" r="6.79041" transform="rotate(-0.327754 66.9822 122.628)" fill="white"/>
<circle cx="91.0087" cy="61.5504" r="6.79041" transform="rotate(-0.327754 91.0087 61.5504)" fill="white"/>
<circle cx="91.2458" cy="102.988" r="6.79041" transform="rotate(-0.327754 91.2458 102.988)" fill="white"/>
<circle cx="91.1202" cy="81.0505" r="6.79041" transform="rotate(-0.327754 91.1202 81.0505)" fill="white"/>
<circle cx="91.3573" cy="122.488" r="6.79041" transform="rotate(-0.327754 91.3573 122.488)" fill="white"/>
<path d="M103.885 97.8341C103.206 95.1162 99.8866 82.3112 97.5183 73.1924C96.865 70.6769 98.7469 68.219 101.346 68.1895L225.889 66.7715C228.374 66.7432 230.285 68.976 229.794 71.4112C223.13 104.441 205.995 119.353 196.981 122.064C188.819 124.615 185.807 126.816 183.647 130.848C181.259 135.306 176.643 138.012 173.516 138.133L150.79 138.28C147.402 138.259 144.133 137.674 140.868 132.777C136.788 126.655 134.747 125.125 126.585 122.32C111.533 117.158 104.906 101.915 103.885 97.8341Z" fill="#EAF7FF" stroke="#70C5CA"/>
<path d="M147.159 21.8784V29.4895C147.159 30.0328 146.726 30.4766 146.183 30.4893L138.836 30.66C138.293 30.6727 137.859 31.1165 137.859 31.6598V39.9198C137.859 40.472 138.307 40.9198 138.859 40.9198H146.159C146.711 40.9198 147.159 41.3675 147.159 41.9198V49.2196C147.159 49.7718 147.607 50.2196 148.159 50.2196H157.045C157.597 50.2196 158.045 49.7718 158.045 49.2196V41.7756C158.045 41.2233 158.493 40.7756 159.045 40.7756H165.912C166.465 40.7756 166.912 40.3279 166.912 39.7756V31.3944C166.912 30.8421 166.465 30.3944 165.912 30.3944H158.612C158.06 30.3944 157.612 29.9467 157.612 29.3944V21.8784C157.612 21.3261 157.165 20.8784 156.612 20.8784H148.159C147.607 20.8784 147.159 21.3261 147.159 21.8784Z" fill="#C9DCF8" stroke="#6CABC8" stroke-width="2" stroke-linecap="round"/>
<path d="M174.711 6.99243V10.8599C174.711 11.4031 174.277 11.847 173.734 11.8597L170.019 11.946C169.476 11.9586 169.042 12.4025 169.042 12.9458V17.2088C169.042 17.761 169.49 18.2088 170.042 18.2088H173.711C174.263 18.2088 174.711 18.6565 174.711 19.2088V22.8775C174.711 23.4298 175.158 23.8775 175.711 23.8775H180.346C180.899 23.8775 181.346 23.4298 181.346 22.8775V19.1209C181.346 18.5686 181.794 18.1209 182.346 18.1209H185.751C186.304 18.1209 186.751 17.6732 186.751 17.1209V12.793C186.751 12.2407 186.304 11.793 185.751 11.793H182.083C181.53 11.793 181.083 11.3452 181.083 10.793V6.99243C181.083 6.44015 180.635 5.99243 180.083 5.99243H175.711C175.159 5.99243 174.711 6.44015 174.711 6.99243Z" fill="#C9DCF8" stroke="#6CABC8" stroke-width="1.5" stroke-linecap="round"/>
<circle cx="219.509" cy="61.2639" r="34.6731" fill="#C9DCF8" stroke="#6CABC8"/>
<path d="M213.404 43.7573V53.2241C213.404 53.7673 212.97 54.2112 212.427 54.2238L203.281 54.4364C202.738 54.449 202.304 54.8929 202.304 55.4362V65.6773C202.304 66.2296 202.752 66.6773 203.304 66.6773H212.404C212.956 66.6773 213.404 67.1251 213.404 67.6773V76.777C213.404 77.3293 213.852 77.777 214.404 77.777H225.396C225.949 77.777 226.396 77.3293 226.396 76.777V67.5052C226.396 66.953 226.844 66.5052 227.396 66.5052H235.98C236.532 66.5052 236.98 66.0575 236.98 65.5052V55.115C236.98 54.5627 236.532 54.115 235.98 54.115H226.88C226.328 54.115 225.88 53.6672 225.88 53.115V43.7573C225.88 43.205 225.432 42.7573 224.88 42.7573H214.404C213.852 42.7573 213.404 43.205 213.404 43.7573Z" fill="white" stroke="#6CABC8" stroke-linecap="round"/>
<path d="M110.406 38.6089L116.106 67.1096C116.2 67.5794 116.614 67.9165 117.093 67.9135L136.24 67.7923C136.943 67.7879 137.422 67.0786 137.164 66.4248L124.573 34.5627C124.468 34.2948 124.485 33.9903 124.615 33.7333C129.422 24.2342 129.248 19.3341 126.306 17.8628C123.322 16.3707 115.725 17.1846 110.842 18.6768C105.958 20.169 99.1756 24.5099 98.9043 28.9864C98.6962 32.4193 105.784 36.2095 109.797 37.8718C110.111 38.0017 110.339 38.2761 110.406 38.6089Z" fill="white" stroke="#6CABC8" stroke-linecap="round"/>
<rect x="235.309" y="64.1342" width="49.1637" height="14.2466" rx="0.5" fill="white" stroke="#6CABC8"/>
<path d="M245.187 65.8795V75.5779" stroke="#6CABC8" stroke-width="2" stroke-linecap="round"/>
<path d="M254.705 65.8795V75.5779" stroke="#6CABC8" stroke-width="2" stroke-linecap="round"/>
<path d="M264.763 65.8795V75.5779" stroke="#6CABC8" stroke-width="2" stroke-linecap="round"/>
<path d="M274.282 65.8795V75.5779" stroke="#6CABC8" stroke-width="2" stroke-linecap="round"/>
<rect x="239.145" y="78.5933" width="41.197" height="59.1968" rx="0.5" fill="#EAF7FF" stroke="#6CABC8"/>
<rect x="254.194" y="90.1013" width="26.1482" height="38.8364" rx="0.5" fill="#C9DCF8" stroke="#6CABC8"/>
<path d="M283.833 120.453C280.36 123.794 274.835 123.688 271.493 120.215C268.151 116.742 268.258 111.217 271.731 107.875L280.581 99.359L292.683 111.936L283.833 120.453Z" fill="#EAF7FF" stroke="#6EBBC9"/>
<path d="M300.771 104.154C304.244 100.812 304.351 95.2874 301.009 91.8143C297.667 88.3411 292.142 88.2347 288.669 91.5766L279.819 100.093L291.921 112.67L300.771 104.154Z" fill="#C9DCF8" stroke="#6EBBC9"/>
<path d="M305.622 68.444C304.045 72.9983 299.074 75.4113 294.519 73.8335C289.965 72.2557 287.552 67.2847 289.13 62.7304L293.15 51.1246L309.643 56.8382L305.622 68.444Z" fill="#EAF7FF" stroke="#6EBBC9"/>
<path d="M313.317 46.2327C314.895 41.6784 312.482 36.7074 307.928 35.1296C303.373 33.5518 298.402 35.9648 296.824 40.5191L292.804 52.1249L309.296 57.8385L313.317 46.2327Z" fill="#C9DCF8" stroke="#6EBBC9"/>
<path d="M284.025 43.3313C285.924 45.9438 285.346 49.6011 282.733 51.5001C280.121 53.3992 276.463 52.8209 274.564 50.2085L269.687 43.4997L279.148 36.6225L284.025 43.3313Z" fill="#EAF7FF" stroke="#6EBBC9"/>
<path d="M274.516 30.2506C272.617 27.6381 268.96 27.0598 266.347 28.9589C263.735 30.858 263.156 34.5153 265.056 37.1278L269.932 43.8366L279.393 36.9594L274.516 30.2506Z" fill="#C9DCF8" stroke="#6EBBC9"/>
</svg>
